PathFileType	4	(X/Y/Z)	HSS_walk5.trc
DataRate	CameraRate	NumFrames	NumMarkers	Units	OrigDataRate	OrigDataStartFrame	OrigNumFrames
120.0	120.0	6	44	mm	120.0	811	1080
Frame#	Time		R.Shoulder		Offset		L.Shoulder		R.Elbow		R.Wrist.Radial		R.Wrist		R.Hand		L.Elbow		L.Wrist.Radial		L.Wrist		L.Hand		R.Hip		V.Sacral		L.PSIS		L.Hip		R.Thigh.Upper		R.Thigh.Front		R.Thigh.Rear		X.Shell.Lower.Thigh.Right		R.Knee.Lateral		R.Shank.Upper		R.Shank.Front		R.Shank.Rear		X.Shell.Lower.Shank.Right		R.Ankle.Lateral		R.Heel		R.Toe		L.Thigh.Upper		L.Thigh.Front		L.Thigh.Rear		X.Shell.Lower.Thigh.Left		L.Knee.Lateral		L.Shank.Upper		L.Shank.Front		L.Shank.Rear		X.Shell.Lower.Shank.Left		L.Ankle.Lateral		L.Heel		L.Toe		R.Troc		L.Troc		R.PSIS		L.ASIS		R.ASIS
			X1	Y1	Z1	X2	Y2	Z2	X3	Y3	Z3	X4	Y4	Z4	X5	Y5	Z5	X6	Y6	Z6	X7	Y7	Z7	X8	Y8	Z8	X9	Y9	Z9	X10	Y10	Z10	X11	Y11	Z11	X12	Y12	Z12	X13	Y13	Z13	X14	Y14	Z14	X15	Y15	Z15	X16	Y16	Z16	X17	Y17	Z17	X18	Y18	Z18	X19	Y19	Z19	X20	Y20	Z20	X21	Y21	Z21	X22	Y22	Z22	X23	Y23	Z23	X24	Y24	Z24	X25	Y25	Z25	X26	Y26	Z26	X27	Y27	Z27	X28	Y28	Z28	X29	Y29	Z29	X30	Y30	Z30	X31	Y31	Z31	X32	Y32	Z32	X33	Y33	Z33	X34	Y34	Z34	X35	Y35	Z35	X36	Y36	Z36	X37	Y37	Z37	X38	Y38	Z38	X39	Y39	Z39	X40	Y40	Z40	X41	Y41	Z41	X42	Y42	Z42	X43	Y43	Z43	X44	Y44	Z44

811	6.75000	2305.37183	1475.55579	-53.54079	2189.55322	1391.88660	-336.89935	2318.88599	1479.52039	-423.14600	2292.01416	1107.88257	1.76526	2474.43140	922.31970	-13.80377	2440.02588	905.01385	50.68417	2501.75879	843.81348	38.44501	2271.65234	1119.73364	-463.72607	2348.56494	900.97748	-531.99261	2384.02905	889.88635	-470.13385	2384.13330	820.73480	-526.47217	2314.60156	1028.78247	-81.14219	2215.56177	1013.33966	-244.56065	2222.25269	1022.13708	-285.10297	2352.53613	1036.12024	-376.80148	2430.25317	697.41870	-38.27220	2476.28003	672.53009	-44.08199	2418.64648	653.65198	-32.12313	2458.30371	631.34674	-40.93453	2424.78833	516.99420	-58.03611	2317.11694	421.81342	-39.12104	2313.14648	367.93283	-56.15082	2275.90601	414.37430	-66.44254	2266.26440	368.58255	-70.51129	2117.41919	219.33145	-143.48047	2080.36377	221.74248	-209.94896	2175.41284	79.38491	-114.47513	2452.43799	696.85968	-375.19513	2476.33545	652.59705	-346.84204	2429.16553	655.63794	-388.49615	2458.35693	626.30450	-370.91864	2405.01929	504.22778	-344.66714	2367.52246	301.42972	-376.68710	2389.40308	276.81024	-353.23965	2331.55835	266.39453	-366.40317	2351.60840	233.76514	-362.28320	2336.94849	74.74907	-305.34482	2274.37939	41.28673	-263.32935	2477.11255	35.17067	-284.39380	2339.48413	868.68304	-51.90028	2371.01221	894.81042	-409.84702	2210.29419	1017.31775	-199.89053	2413.00293	1002.11060	-329.33966	2379.84326	992.74817	-108.57505
812	6.75833	2314.70215	1476.64771	-54.11853	2199.93970	1392.92065	-338.49719	2329.80811	1480.72546	-423.53458	2296.90381	1109.32800	0.46749	2473.55249	918.88989	-14.00094	2439.18066	903.09192	50.53423	2498.97461	839.88904	38.76608	2288.55640	1119.87402	-465.55203	2372.24438	903.02795	-532.17291	2407.60840	893.13562	-469.94482	2410.24683	824.17957	-526.29242	2326.17261	1030.53906	-82.05325	2224.75073	1014.04315	-244.56976	2230.80444	1022.66736	-285.31604	2361.32739	1036.34216	-377.60623	2445.22241	700.87311	-38.74944	2491.82373	677.09729	-44.95094	2434.56738	657.10620	-32.12036	2474.37769	635.40430	-41.65871	2442.72363	519.93060	-58.96769	2337.67432	420.71762	-38.90681	2335.28760	366.82925	-56.63861	2296.30542	412.48651	-65.64332	2288.38623	366.46509	-70.17974	2143.71729	213.18497	-143.64381	2105.38989	213.08667	-209.90315	2208.76392	77.35816	-113.17591	2458.19702	696.04138	-375.79346	2481.74146	651.54688	-347.51407	2434.28540	655.34784	-389.00333	2462.99561	625.19690	-371.46701	2408.04053	503.79974	-344.87708	2368.51538	301.44601	-376.83646	2390.51025	276.62302	-353.30441	2332.12524	266.62094	-366.43164	2352.26465	233.91463	-362.47668	2337.01929	74.85322	-305.32401	2274.36084	41.66000	-263.21710	2477.22949	35.08860	-284.42383	2351.34131	872.43018	-52.25554	2379.21582	894.74414	-410.48895	2219.66431	1018.28943	-199.94194	2422.05981	1002.53094	-330.55545	2389.78589	994.35608	-109.65390
813	6.76667	2323.82715	1477.47217	-54.88273	2210.38379	1393.80554	-340.21637	2340.75659	1481.92468	-423.93506	2301.51929	1110.72778	-1.30029	2473.03833	915.56085	-14.02986	2438.14771	901.16626	50.60306	2495.83643	836.10315	39.22916	2305.13086	1120.09839	-467.57184	2396.17163	905.47894	-532.28589	2431.20508	896.69562	-469.70068	2436.57959	827.82538	-526.11273	2335.85449	1031.66516	-82.56705	2233.87622	1014.90747	-244.28014	2240.79980	1023.01379	-285.13910	2369.49805	1036.46753	-378.21988	2460.02710	704.44171	-39.16570	2506.85815	681.31830	-46.05520	2450.08057	660.17084	-32.42374	2490.30542	639.39410	-42.32676	2459.89258	522.69318	-59.36980	2358.23315	419.30197	-38.72670	2357.75220	365.70551	-56.89540	2316.73926	410.02017	-64.94587	2310.26562	363.92856	-69.97659	2169.58716	206.20418	-143.58162	2130.84888	203.56335	-209.57715	2242.71265	74.95016	-112.07007	2463.80811	695.28186	-376.33469	2487.05176	650.42841	-348.27887	2439.18286	654.81793	-389.15851	2467.81934	624.65454	-372.06949	2410.96436	503.28513	-345.43994	2369.40747	301.46988	-377.00427	2391.31543	276.51974	-353.65942	2332.86206	266.91150	-366.24484	2352.85132	234.01524	-362.40280	2337.12036	75.00967	-305.10144	2274.43921	41.92501	-262.97177	2477.31616	35.01782	-284.42596	2362.86743	876.30713	-53.04596	2386.72168	894.73883	-410.92401	2228.94971	1019.09564	-200.20869	2430.96924	1002.77307	-331.69540	2399.99805	995.74463	-110.33515
814	6.77500	2332.85815	1478.23303	-55.46338	2220.66650	1394.54053	-341.97491	2351.58887	1482.62976	-424.37778	2306.10229	1111.97986	-2.82993	2473.82153	912.38135	-14.44002	2436.70190	899.28699	50.66647	2492.79980	832.44043	39.81686	2321.69604	1120.21228	-469.39304	2419.66699	907.80835	-532.15857	2454.45728	900.62787	-469.43317	2462.81982	831.94904	-525.86572	2345.47900	1032.76099	-83.09792	2243.25513	1015.03088	-244.12915	2249.04590	1023.41193	-285.28741	2379.26245	1037.02136	-378.82315	2474.49805	707.52448	-39.84177	2521.48340	685.20325	-47.57846	2465.42163	663.26965	-32.47962	2505.78784	643.07367	-43.37225	2477.03687	525.29779	-60.70844	2378.67700	417.59988	-38.69062	2379.58105	364.45285	-57.93854	2337.04224	407.23526	-64.20917	2332.17163	360.85458	-69.84792	2196.74536	198.29367	-142.94530	2157.12451	193.34900	-208.65176	2277.25610	72.32486	-111.03485	2469.19751	694.16119	-377.19382	2491.95972	649.33344	-348.79468	2443.81958	654.46082	-390.04242	2472.30005	623.76733	-372.33167	2413.81958	503.09427	-345.77435	2370.31763	301.45892	-377.02661	2392.30688	276.41293	-353.80786	2333.41479	267.29495	-366.05969	2353.40820	234.11479	-362.34387	2337.26050	75.14924	-304.72327	2274.70361	42.49337	-262.11981	2477.39673	34.95785	-284.46103	2374.70435	880.24487	-53.39021	2395.44775	894.09344	-411.32529	2238.92163	1020.05457	-200.04340	2441.03589	1003.13800	-332.72485	2409.96411	996.88428	-111.33091
815	6.78333	2341.70996	1478.82068	-55.97713	2230.97607	1395.12341	-343.33499	2362.38159	1483.59875	-424.77103	2310.77539	1113.11011	-4.56117	2471.62329	909.45782	-13.66464	2435.33057	897.48859	50.82224	2489.52808	829.20123	40.58725	2338.34155	1120.38135	-471.32990	2443.32056	910.58441	-532.08569	2477.99658	904.69952	-469.21259	2488.96631	836.27197	-525.39917	2355.56714	1033.69226	-83.59221	2252.35400	1015.37378	-244.01118	2259.21289	1023.26965	-285.03171	2387.86108	1036.97241	-379.37454	2488.99878	710.73438	-40.43472	2536.00244	688.92224	-49.16806	2480.29077	666.11011	-33.04099	2520.97998	646.49475	-44.48077	2493.73926	527.91394	-61.32678	2399.08252	415.92480	-38.63398	2401.60596	362.90421	-58.42416	2357.47339	403.96729	-63.73332	2354.19873	357.37024	-69.61975	2224.40771	189.85893	-142.09824	2184.32617	182.47971	-207.49142	2312.61670	69.69458	-110.03332	2474.64185	693.34534	-377.42477	2496.98657	648.13257	-349.31796	2448.59644	653.78625	-390.09775	2476.81055	622.84570	-372.71692	2416.36108	502.73105	-345.95120	2371.22852	301.45789	-376.96661	2393.26440	276.08609	-353.93167	2334.48315	267.37613	-365.76294	2353.83838	234.21121	-362.22775	2337.29858	75.28500	-304.42511	2275.05005	42.66566	-261.58530	2477.52026	34.91794	-284.45456	2386.58398	883.08527	-53.28962	2403.46802	893.81812	-411.82053	2248.78467	1020.24060	-200.05043	2448.42773	1002.86322	-333.94589	2420.16577	997.95325	-112.00973
816	6.79167	2350.74780	1479.14001	-56.47287	2241.21094	1395.69946	-344.79736	2372.99976	1484.10571	-425.07352	2315.44165	1114.17896	-6.40012	2470.50415	906.10962	-13.07626	2433.63110	895.57031	50.86570	2486.09351	825.84637	41.44875	2354.74146	1120.29639	-473.12115	2466.77881	913.39172	-532.04761	2501.70142	909.13080	-468.74420	2514.98584	840.87915	-524.88831	2365.44409	1034.41992	-83.93870	2261.68750	1015.31018	-243.74951	2267.83105	1023.32806	-284.98160	2396.59644	1036.88550	-379.79028	2502.95654	713.33008	-41.33582	2550.22705	692.26117	-50.51696	2495.26807	668.95557	-33.24440	2535.67236	649.67279	-45.73892	2509.65454	530.13751	-62.63090	2419.24707	414.08884	-38.63478	2423.66626	361.22385	-58.86547	2377.73145	400.49683	-63.17768	2376.22388	353.78113	-69.88672	2253.14380	180.88454	-140.83723	2211.92822	171.03580	-206.02968	2347.78882	66.08448	-109.46712	2479.80127	692.51306	-377.54675	2501.97925	647.07489	-349.67303	2453.09692	653.26001	-390.03284	2481.10742	621.99048	-372.87506	2419.28125	502.50446	-346.29526	2372.33740	301.34476	-376.79272	2394.47705	276.02185	-354.12473	2335.56055	267.44153	-365.54877	2354.86890	234.26620	-362.10684	2337.40527	75.46006	-304.10007	2275.01318	43.00451	-261.17026	2477.62695	34.87090	-284.42569	2398.07471	885.28906	-53.87284	2411.05566	893.50299	-412.40985	2256.64258	1020.94995	-199.85904	2457.46533	1002.87720	-334.87109	2430.10474	998.65668	-112.67899
